<mxfile host="app.diagrams.net" agent="Mozilla/5.0 (X11; Ubuntu; Linux x86_64; rv:138.0) Gecko/20100101 Firefox/138.0" version="26.2.14">
  <diagram name="PÃ¡gina-1" id="qfFPaEkan2TzAg40E5S_">
    <mxGraphModel dx="989" dy="579" grid="1" gridSize="10" guides="1" tooltips="1" connect="1" arrows="1" fold="1" page="1" pageScale="1" pageWidth="827" pageHeight="1169" math="0" shadow="0">
      <root>
        <mxCell id="0" />
        <mxCell id="1" parent="0" />
        <mxCell id="V5I9MlUDL_zVhgh1LNIV-1" value="&lt;&lt;abstract&gt;&gt;&#xa;Report" style="swimlane;fontStyle=1;align=center;verticalAlign=top;childLayout=stackLayout;horizontal=1;startSize=48;horizontalStack=0;resizeParent=1;resizeParentMax=0;resizeLast=0;collapsible=0;marginBottom=0;" parent="1" vertex="1">
          <mxGeometry x="945" y="750" width="343" height="312" as="geometry" />
        </mxCell>
        <mxCell id="V5I9MlUDL_zVhgh1LNIV-2" value="-title: String" style="text;strokeColor=none;fillColor=none;align=left;verticalAlign=top;spacingLeft=4;spacingRight=4;overflow=hidden;rotatable=0;points=[[0,0.5],[1,0.5]];portConstraint=eastwest;" parent="V5I9MlUDL_zVhgh1LNIV-1" vertex="1">
          <mxGeometry y="48" width="343" height="32" as="geometry" />
        </mxCell>
        <mxCell id="V5I9MlUDL_zVhgh1LNIV-3" value="-content: String" style="text;strokeColor=none;fillColor=none;align=left;verticalAlign=top;spacingLeft=4;spacingRight=4;overflow=hidden;rotatable=0;points=[[0,0.5],[1,0.5]];portConstraint=eastwest;" parent="V5I9MlUDL_zVhgh1LNIV-1" vertex="1">
          <mxGeometry y="80" width="343" height="32" as="geometry" />
        </mxCell>
        <mxCell id="V5I9MlUDL_zVhgh1LNIV-4" value="-exporter: Exporter" style="text;strokeColor=none;fillColor=none;align=left;verticalAlign=top;spacingLeft=4;spacingRight=4;overflow=hidden;rotatable=0;points=[[0,0.5],[1,0.5]];portConstraint=eastwest;" parent="V5I9MlUDL_zVhgh1LNIV-1" vertex="1">
          <mxGeometry y="112" width="343" height="32" as="geometry" />
        </mxCell>
        <mxCell id="V5I9MlUDL_zVhgh1LNIV-5" style="line;strokeWidth=1;fillColor=none;align=left;verticalAlign=middle;spacingTop=-1;spacingLeft=3;spacingRight=3;rotatable=0;labelPosition=right;points=[];portConstraint=eastwest;strokeColor=inherit;" parent="V5I9MlUDL_zVhgh1LNIV-1" vertex="1">
          <mxGeometry y="144" width="343" height="8" as="geometry" />
        </mxCell>
        <mxCell id="V5I9MlUDL_zVhgh1LNIV-6" value="+Report(title: String, exporter: Exporter)" style="text;strokeColor=none;fillColor=none;align=left;verticalAlign=top;spacingLeft=4;spacingRight=4;overflow=hidden;rotatable=0;points=[[0,0.5],[1,0.5]];portConstraint=eastwest;" parent="V5I9MlUDL_zVhgh1LNIV-1" vertex="1">
          <mxGeometry y="152" width="343" height="32" as="geometry" />
        </mxCell>
        <mxCell id="V5I9MlUDL_zVhgh1LNIV-7" value="+getTitle() : : String" style="text;strokeColor=none;fillColor=none;align=left;verticalAlign=top;spacingLeft=4;spacingRight=4;overflow=hidden;rotatable=0;points=[[0,0.5],[1,0.5]];portConstraint=eastwest;" parent="V5I9MlUDL_zVhgh1LNIV-1" vertex="1">
          <mxGeometry y="184" width="343" height="32" as="geometry" />
        </mxCell>
        <mxCell id="V5I9MlUDL_zVhgh1LNIV-8" value="+getContent() : : String" style="text;strokeColor=none;fillColor=none;align=left;verticalAlign=top;spacingLeft=4;spacingRight=4;overflow=hidden;rotatable=0;points=[[0,0.5],[1,0.5]];portConstraint=eastwest;" parent="V5I9MlUDL_zVhgh1LNIV-1" vertex="1">
          <mxGeometry y="216" width="343" height="32" as="geometry" />
        </mxCell>
        <mxCell id="V5I9MlUDL_zVhgh1LNIV-9" value="+setExporter(exporter: Exporter) : : void" style="text;strokeColor=none;fillColor=none;align=left;verticalAlign=top;spacingLeft=4;spacingRight=4;overflow=hidden;rotatable=0;points=[[0,0.5],[1,0.5]];portConstraint=eastwest;" parent="V5I9MlUDL_zVhgh1LNIV-1" vertex="1">
          <mxGeometry y="248" width="343" height="32" as="geometry" />
        </mxCell>
        <mxCell id="V5I9MlUDL_zVhgh1LNIV-10" value="+generate() : : void" style="text;strokeColor=none;fillColor=none;align=left;verticalAlign=top;spacingLeft=4;spacingRight=4;overflow=hidden;rotatable=0;points=[[0,0.5],[1,0.5]];portConstraint=eastwest;" parent="V5I9MlUDL_zVhgh1LNIV-1" vertex="1">
          <mxGeometry y="280" width="343" height="32" as="geometry" />
        </mxCell>
        <mxCell id="V5I9MlUDL_zVhgh1LNIV-11" value="ExecutiveReport" style="swimlane;fontStyle=1;align=center;verticalAlign=top;childLayout=stackLayout;horizontal=1;startSize=36.8;horizontalStack=0;resizeParent=1;resizeParentMax=0;resizeLast=0;collapsible=0;marginBottom=0;" parent="1" vertex="1">
          <mxGeometry x="20" y="1171" width="437" height="192.8" as="geometry" />
        </mxCell>
        <mxCell id="V5I9MlUDL_zVhgh1LNIV-12" value="-summary: String" style="text;strokeColor=none;fillColor=none;align=left;verticalAlign=top;spacingLeft=4;spacingRight=4;overflow=hidden;rotatable=0;points=[[0,0.5],[1,0.5]];portConstraint=eastwest;" parent="V5I9MlUDL_zVhgh1LNIV-11" vertex="1">
          <mxGeometry y="36.8" width="437" height="37" as="geometry" />
        </mxCell>
        <mxCell id="V5I9MlUDL_zVhgh1LNIV-13" style="line;strokeWidth=1;fillColor=none;align=left;verticalAlign=middle;spacingTop=-1;spacingLeft=3;spacingRight=3;rotatable=0;labelPosition=right;points=[];portConstraint=eastwest;strokeColor=inherit;" parent="V5I9MlUDL_zVhgh1LNIV-11" vertex="1">
          <mxGeometry y="73.8" width="437" height="8" as="geometry" />
        </mxCell>
        <mxCell id="V5I9MlUDL_zVhgh1LNIV-14" value="+ExecutiveReport(title: String, exporter: Exporter)" style="text;strokeColor=none;fillColor=none;align=left;verticalAlign=top;spacingLeft=4;spacingRight=4;overflow=hidden;rotatable=0;points=[[0,0.5],[1,0.5]];portConstraint=eastwest;" parent="V5I9MlUDL_zVhgh1LNIV-11" vertex="1">
          <mxGeometry y="81.8" width="437" height="37" as="geometry" />
        </mxCell>
        <mxCell id="V5I9MlUDL_zVhgh1LNIV-15" value="+setSummary(summary: String) : : void" style="text;strokeColor=none;fillColor=none;align=left;verticalAlign=top;spacingLeft=4;spacingRight=4;overflow=hidden;rotatable=0;points=[[0,0.5],[1,0.5]];portConstraint=eastwest;" parent="V5I9MlUDL_zVhgh1LNIV-11" vertex="1">
          <mxGeometry y="118.8" width="437" height="37" as="geometry" />
        </mxCell>
        <mxCell id="V5I9MlUDL_zVhgh1LNIV-16" value="+generate() : : void" style="text;strokeColor=none;fillColor=none;align=left;verticalAlign=top;spacingLeft=4;spacingRight=4;overflow=hidden;rotatable=0;points=[[0,0.5],[1,0.5]];portConstraint=eastwest;" parent="V5I9MlUDL_zVhgh1LNIV-11" vertex="1">
          <mxGeometry y="155.8" width="437" height="37" as="geometry" />
        </mxCell>
        <mxCell id="V5I9MlUDL_zVhgh1LNIV-17" value="DetailedReport" style="swimlane;fontStyle=1;align=center;verticalAlign=top;childLayout=stackLayout;horizontal=1;startSize=33.142857142857146;horizontalStack=0;resizeParent=1;resizeParentMax=0;resizeLast=0;collapsible=0;marginBottom=0;" parent="1" vertex="1">
          <mxGeometry x="507" y="1147" width="420" height="239.14285714285714" as="geometry" />
        </mxCell>
        <mxCell id="V5I9MlUDL_zVhgh1LNIV-18" value="-details: List&lt;String&gt;" style="text;strokeColor=none;fillColor=none;align=left;verticalAlign=top;spacingLeft=4;spacingRight=4;overflow=hidden;rotatable=0;points=[[0,0.5],[1,0.5]];portConstraint=eastwest;" parent="V5I9MlUDL_zVhgh1LNIV-17" vertex="1">
          <mxGeometry y="33.142857142857146" width="420" height="33" as="geometry" />
        </mxCell>
        <mxCell id="V5I9MlUDL_zVhgh1LNIV-19" value="-charts: List&lt;Chart&gt;" style="text;strokeColor=none;fillColor=none;align=left;verticalAlign=top;spacingLeft=4;spacingRight=4;overflow=hidden;rotatable=0;points=[[0,0.5],[1,0.5]];portConstraint=eastwest;" parent="V5I9MlUDL_zVhgh1LNIV-17" vertex="1">
          <mxGeometry y="66.14285714285714" width="420" height="33" as="geometry" />
        </mxCell>
        <mxCell id="V5I9MlUDL_zVhgh1LNIV-20" style="line;strokeWidth=1;fillColor=none;align=left;verticalAlign=middle;spacingTop=-1;spacingLeft=3;spacingRight=3;rotatable=0;labelPosition=right;points=[];portConstraint=eastwest;strokeColor=inherit;" parent="V5I9MlUDL_zVhgh1LNIV-17" vertex="1">
          <mxGeometry y="99.14285714285714" width="420" height="8" as="geometry" />
        </mxCell>
        <mxCell id="V5I9MlUDL_zVhgh1LNIV-21" value="+DetailedReport(title: String, exporter: Exporter)" style="text;strokeColor=none;fillColor=none;align=left;verticalAlign=top;spacingLeft=4;spacingRight=4;overflow=hidden;rotatable=0;points=[[0,0.5],[1,0.5]];portConstraint=eastwest;" parent="V5I9MlUDL_zVhgh1LNIV-17" vertex="1">
          <mxGeometry y="107.14285714285714" width="420" height="33" as="geometry" />
        </mxCell>
        <mxCell id="V5I9MlUDL_zVhgh1LNIV-22" value="+addDetail(detail: String) : : void" style="text;strokeColor=none;fillColor=none;align=left;verticalAlign=top;spacingLeft=4;spacingRight=4;overflow=hidden;rotatable=0;points=[[0,0.5],[1,0.5]];portConstraint=eastwest;" parent="V5I9MlUDL_zVhgh1LNIV-17" vertex="1">
          <mxGeometry y="140.14285714285714" width="420" height="33" as="geometry" />
        </mxCell>
        <mxCell id="V5I9MlUDL_zVhgh1LNIV-23" value="+addChart(chart: Chart) : : void" style="text;strokeColor=none;fillColor=none;align=left;verticalAlign=top;spacingLeft=4;spacingRight=4;overflow=hidden;rotatable=0;points=[[0,0.5],[1,0.5]];portConstraint=eastwest;" parent="V5I9MlUDL_zVhgh1LNIV-17" vertex="1">
          <mxGeometry y="173.14285714285714" width="420" height="33" as="geometry" />
        </mxCell>
        <mxCell id="V5I9MlUDL_zVhgh1LNIV-24" value="+generate() : : void" style="text;strokeColor=none;fillColor=none;align=left;verticalAlign=top;spacingLeft=4;spacingRight=4;overflow=hidden;rotatable=0;points=[[0,0.5],[1,0.5]];portConstraint=eastwest;" parent="V5I9MlUDL_zVhgh1LNIV-17" vertex="1">
          <mxGeometry y="206.14285714285714" width="420" height="33" as="geometry" />
        </mxCell>
        <mxCell id="V5I9MlUDL_zVhgh1LNIV-25" value="&lt;&lt;interface&gt;&gt;&#xa;Exporter" style="swimlane;fontStyle=1;align=center;verticalAlign=top;childLayout=stackLayout;horizontal=1;startSize=71;horizontalStack=0;resizeParent=1;resizeParentMax=0;resizeLast=0;collapsible=0;marginBottom=0;" parent="1" vertex="1">
          <mxGeometry x="977" y="1192" width="278" height="126" as="geometry" />
        </mxCell>
        <mxCell id="V5I9MlUDL_zVhgh1LNIV-26" style="line;strokeWidth=1;fillColor=none;align=left;verticalAlign=middle;spacingTop=-1;spacingLeft=3;spacingRight=3;rotatable=0;labelPosition=right;points=[];portConstraint=eastwest;strokeColor=inherit;" parent="V5I9MlUDL_zVhgh1LNIV-25" vertex="1">
          <mxGeometry y="71" width="278" height="8" as="geometry" />
        </mxCell>
        <mxCell id="V5I9MlUDL_zVhgh1LNIV-27" value="+export(report: Report) : : void" style="text;strokeColor=none;fillColor=none;align=left;verticalAlign=top;spacingLeft=4;spacingRight=4;overflow=hidden;rotatable=0;points=[[0,0.5],[1,0.5]];portConstraint=eastwest;" parent="V5I9MlUDL_zVhgh1LNIV-25" vertex="1">
          <mxGeometry y="79" width="278" height="47" as="geometry" />
        </mxCell>
        <mxCell id="V5I9MlUDL_zVhgh1LNIV-28" value="PDFExporter" style="swimlane;fontStyle=1;align=center;verticalAlign=top;childLayout=stackLayout;horizontal=1;startSize=47.2;horizontalStack=0;resizeParent=1;resizeParentMax=0;resizeLast=0;collapsible=0;marginBottom=0;" parent="1" vertex="1">
          <mxGeometry x="632" y="1506" width="288" height="102.2" as="geometry" />
        </mxCell>
        <mxCell id="V5I9MlUDL_zVhgh1LNIV-29" style="line;strokeWidth=1;fillColor=none;align=left;verticalAlign=middle;spacingTop=-1;spacingLeft=3;spacingRight=3;rotatable=0;labelPosition=right;points=[];portConstraint=eastwest;strokeColor=inherit;" parent="V5I9MlUDL_zVhgh1LNIV-28" vertex="1">
          <mxGeometry y="47.2" width="288" height="8" as="geometry" />
        </mxCell>
        <mxCell id="V5I9MlUDL_zVhgh1LNIV-30" value="+export(report: Report) : : void" style="text;strokeColor=none;fillColor=none;align=left;verticalAlign=top;spacingLeft=4;spacingRight=4;overflow=hidden;rotatable=0;points=[[0,0.5],[1,0.5]];portConstraint=eastwest;" parent="V5I9MlUDL_zVhgh1LNIV-28" vertex="1">
          <mxGeometry y="55.2" width="288" height="47" as="geometry" />
        </mxCell>
        <mxCell id="V5I9MlUDL_zVhgh1LNIV-31" value="HTMLExporter" style="swimlane;fontStyle=1;align=center;verticalAlign=top;childLayout=stackLayout;horizontal=1;startSize=47.2;horizontalStack=0;resizeParent=1;resizeParentMax=0;resizeLast=0;collapsible=0;marginBottom=0;" parent="1" vertex="1">
          <mxGeometry x="970" y="1506" width="294" height="102.2" as="geometry" />
        </mxCell>
        <mxCell id="V5I9MlUDL_zVhgh1LNIV-32" style="line;strokeWidth=1;fillColor=none;align=left;verticalAlign=middle;spacingTop=-1;spacingLeft=3;spacingRight=3;rotatable=0;labelPosition=right;points=[];portConstraint=eastwest;strokeColor=inherit;" parent="V5I9MlUDL_zVhgh1LNIV-31" vertex="1">
          <mxGeometry y="47.2" width="294" height="8" as="geometry" />
        </mxCell>
        <mxCell id="V5I9MlUDL_zVhgh1LNIV-33" value="+export(report: Report) : : void" style="text;strokeColor=none;fillColor=none;align=left;verticalAlign=top;spacingLeft=4;spacingRight=4;overflow=hidden;rotatable=0;points=[[0,0.5],[1,0.5]];portConstraint=eastwest;" parent="V5I9MlUDL_zVhgh1LNIV-31" vertex="1">
          <mxGeometry y="55.2" width="294" height="47" as="geometry" />
        </mxCell>
        <mxCell id="V5I9MlUDL_zVhgh1LNIV-34" value="MarkdownExporter" style="swimlane;fontStyle=1;align=center;verticalAlign=top;childLayout=stackLayout;horizontal=1;startSize=47.2;horizontalStack=0;resizeParent=1;resizeParentMax=0;resizeLast=0;collapsible=0;marginBottom=0;" parent="1" vertex="1">
          <mxGeometry x="1314" y="1506" width="311" height="102.2" as="geometry" />
        </mxCell>
        <mxCell id="V5I9MlUDL_zVhgh1LNIV-35" style="line;strokeWidth=1;fillColor=none;align=left;verticalAlign=middle;spacingTop=-1;spacingLeft=3;spacingRight=3;rotatable=0;labelPosition=right;points=[];portConstraint=eastwest;strokeColor=inherit;" parent="V5I9MlUDL_zVhgh1LNIV-34" vertex="1">
          <mxGeometry y="47.2" width="311" height="8" as="geometry" />
        </mxCell>
        <mxCell id="V5I9MlUDL_zVhgh1LNIV-36" value="+export(report: Report) : : void" style="text;strokeColor=none;fillColor=none;align=left;verticalAlign=top;spacingLeft=4;spacingRight=4;overflow=hidden;rotatable=0;points=[[0,0.5],[1,0.5]];portConstraint=eastwest;" parent="V5I9MlUDL_zVhgh1LNIV-34" vertex="1">
          <mxGeometry y="55.2" width="311" height="47" as="geometry" />
        </mxCell>
        <mxCell id="V5I9MlUDL_zVhgh1LNIV-37" value="&lt;&lt;abstract&gt;&gt;&#xa;ReportDecorator" style="swimlane;fontStyle=1;align=center;verticalAlign=top;childLayout=stackLayout;horizontal=1;startSize=61.33333333333333;horizontalStack=0;resizeParent=1;resizeParentMax=0;resizeLast=0;collapsible=0;marginBottom=0;" parent="1" vertex="1">
          <mxGeometry x="2334" y="1171" width="325" height="192.33333333333331" as="geometry" />
        </mxCell>
        <mxCell id="V5I9MlUDL_zVhgh1LNIV-38" value="-wrappedReport: Report" style="text;strokeColor=none;fillColor=none;align=left;verticalAlign=top;spacingLeft=4;spacingRight=4;overflow=hidden;rotatable=0;points=[[0,0.5],[1,0.5]];portConstraint=eastwest;" parent="V5I9MlUDL_zVhgh1LNIV-37" vertex="1">
          <mxGeometry y="61.33333333333333" width="325" height="41" as="geometry" />
        </mxCell>
        <mxCell id="V5I9MlUDL_zVhgh1LNIV-39" style="line;strokeWidth=1;fillColor=none;align=left;verticalAlign=middle;spacingTop=-1;spacingLeft=3;spacingRight=3;rotatable=0;labelPosition=right;points=[];portConstraint=eastwest;strokeColor=inherit;" parent="V5I9MlUDL_zVhgh1LNIV-37" vertex="1">
          <mxGeometry y="102.33333333333333" width="325" height="8" as="geometry" />
        </mxCell>
        <mxCell id="V5I9MlUDL_zVhgh1LNIV-40" value="+ReportDecorator(report: Report)" style="text;strokeColor=none;fillColor=none;align=left;verticalAlign=top;spacingLeft=4;spacingRight=4;overflow=hidden;rotatable=0;points=[[0,0.5],[1,0.5]];portConstraint=eastwest;" parent="V5I9MlUDL_zVhgh1LNIV-37" vertex="1">
          <mxGeometry y="110.33333333333333" width="325" height="41" as="geometry" />
        </mxCell>
        <mxCell id="V5I9MlUDL_zVhgh1LNIV-41" value="+generate() : : void" style="text;strokeColor=none;fillColor=none;align=left;verticalAlign=top;spacingLeft=4;spacingRight=4;overflow=hidden;rotatable=0;points=[[0,0.5],[1,0.5]];portConstraint=eastwest;" parent="V5I9MlUDL_zVhgh1LNIV-37" vertex="1">
          <mxGeometry y="151.33333333333331" width="325" height="41" as="geometry" />
        </mxCell>
        <mxCell id="V5I9MlUDL_zVhgh1LNIV-42" value="CoverPageDecorator" style="swimlane;fontStyle=1;align=center;verticalAlign=top;childLayout=stackLayout;horizontal=1;startSize=36.8;horizontalStack=0;resizeParent=1;resizeParentMax=0;resizeLast=0;collapsible=0;marginBottom=0;" parent="1" vertex="1">
          <mxGeometry x="1675" y="1473" width="378" height="192.8" as="geometry" />
        </mxCell>
        <mxCell id="V5I9MlUDL_zVhgh1LNIV-43" value="-coverImage: String" style="text;strokeColor=none;fillColor=none;align=left;verticalAlign=top;spacingLeft=4;spacingRight=4;overflow=hidden;rotatable=0;points=[[0,0.5],[1,0.5]];portConstraint=eastwest;" parent="V5I9MlUDL_zVhgh1LNIV-42" vertex="1">
          <mxGeometry y="36.8" width="378" height="37" as="geometry" />
        </mxCell>
        <mxCell id="V5I9MlUDL_zVhgh1LNIV-44" style="line;strokeWidth=1;fillColor=none;align=left;verticalAlign=middle;spacingTop=-1;spacingLeft=3;spacingRight=3;rotatable=0;labelPosition=right;points=[];portConstraint=eastwest;strokeColor=inherit;" parent="V5I9MlUDL_zVhgh1LNIV-42" vertex="1">
          <mxGeometry y="73.8" width="378" height="8" as="geometry" />
        </mxCell>
        <mxCell id="V5I9MlUDL_zVhgh1LNIV-45" value="+CoverPageDecorator(report: Report)" style="text;strokeColor=none;fillColor=none;align=left;verticalAlign=top;spacingLeft=4;spacingRight=4;overflow=hidden;rotatable=0;points=[[0,0.5],[1,0.5]];portConstraint=eastwest;" parent="V5I9MlUDL_zVhgh1LNIV-42" vertex="1">
          <mxGeometry y="81.8" width="378" height="37" as="geometry" />
        </mxCell>
        <mxCell id="V5I9MlUDL_zVhgh1LNIV-46" value="+setCoverImage(image: String) : : void" style="text;strokeColor=none;fillColor=none;align=left;verticalAlign=top;spacingLeft=4;spacingRight=4;overflow=hidden;rotatable=0;points=[[0,0.5],[1,0.5]];portConstraint=eastwest;" parent="V5I9MlUDL_zVhgh1LNIV-42" vertex="1">
          <mxGeometry y="118.8" width="378" height="37" as="geometry" />
        </mxCell>
        <mxCell id="V5I9MlUDL_zVhgh1LNIV-47" value="+generate() : : void" style="text;strokeColor=none;fillColor=none;align=left;verticalAlign=top;spacingLeft=4;spacingRight=4;overflow=hidden;rotatable=0;points=[[0,0.5],[1,0.5]];portConstraint=eastwest;" parent="V5I9MlUDL_zVhgh1LNIV-42" vertex="1">
          <mxGeometry y="155.8" width="378" height="37" as="geometry" />
        </mxCell>
        <mxCell id="V5I9MlUDL_zVhgh1LNIV-48" value="TableOfContentsDecorator" style="swimlane;fontStyle=1;align=center;verticalAlign=top;childLayout=stackLayout;horizontal=1;startSize=40.57142857142857;horizontalStack=0;resizeParent=1;resizeParentMax=0;resizeLast=0;collapsible=0;marginBottom=0;" parent="1" vertex="1">
          <mxGeometry x="2103" y="1494" width="434" height="130.57142857142856" as="geometry" />
        </mxCell>
        <mxCell id="V5I9MlUDL_zVhgh1LNIV-49" style="line;strokeWidth=1;fillColor=none;align=left;verticalAlign=middle;spacingTop=-1;spacingLeft=3;spacingRight=3;rotatable=0;labelPosition=right;points=[];portConstraint=eastwest;strokeColor=inherit;" parent="V5I9MlUDL_zVhgh1LNIV-48" vertex="1">
          <mxGeometry y="40.57142857142857" width="434" height="8" as="geometry" />
        </mxCell>
        <mxCell id="V5I9MlUDL_zVhgh1LNIV-50" value="+TableOfContentsDecorator(report: Report)" style="text;strokeColor=none;fillColor=none;align=left;verticalAlign=top;spacingLeft=4;spacingRight=4;overflow=hidden;rotatable=0;points=[[0,0.5],[1,0.5]];portConstraint=eastwest;" parent="V5I9MlUDL_zVhgh1LNIV-48" vertex="1">
          <mxGeometry y="48.57142857142857" width="434" height="41" as="geometry" />
        </mxCell>
        <mxCell id="V5I9MlUDL_zVhgh1LNIV-51" value="+generate() : : void" style="text;strokeColor=none;fillColor=none;align=left;verticalAlign=top;spacingLeft=4;spacingRight=4;overflow=hidden;rotatable=0;points=[[0,0.5],[1,0.5]];portConstraint=eastwest;" parent="V5I9MlUDL_zVhgh1LNIV-48" vertex="1">
          <mxGeometry y="89.57142857142857" width="434" height="41" as="geometry" />
        </mxCell>
        <mxCell id="V5I9MlUDL_zVhgh1LNIV-52" value="HeaderFooterDecorator" style="swimlane;fontStyle=1;align=center;verticalAlign=top;childLayout=stackLayout;horizontal=1;startSize=33.142857142857146;horizontalStack=0;resizeParent=1;resizeParentMax=0;resizeLast=0;collapsible=0;marginBottom=0;" parent="1" vertex="1">
          <mxGeometry x="2587" y="1449" width="402" height="239.14285714285714" as="geometry" />
        </mxCell>
        <mxCell id="V5I9MlUDL_zVhgh1LNIV-53" value="-header: String" style="text;strokeColor=none;fillColor=none;align=left;verticalAlign=top;spacingLeft=4;spacingRight=4;overflow=hidden;rotatable=0;points=[[0,0.5],[1,0.5]];portConstraint=eastwest;" parent="V5I9MlUDL_zVhgh1LNIV-52" vertex="1">
          <mxGeometry y="33.142857142857146" width="402" height="33" as="geometry" />
        </mxCell>
        <mxCell id="V5I9MlUDL_zVhgh1LNIV-54" value="-footer: String" style="text;strokeColor=none;fillColor=none;align=left;verticalAlign=top;spacingLeft=4;spacingRight=4;overflow=hidden;rotatable=0;points=[[0,0.5],[1,0.5]];portConstraint=eastwest;" parent="V5I9MlUDL_zVhgh1LNIV-52" vertex="1">
          <mxGeometry y="66.14285714285714" width="402" height="33" as="geometry" />
        </mxCell>
        <mxCell id="V5I9MlUDL_zVhgh1LNIV-55" style="line;strokeWidth=1;fillColor=none;align=left;verticalAlign=middle;spacingTop=-1;spacingLeft=3;spacingRight=3;rotatable=0;labelPosition=right;points=[];portConstraint=eastwest;strokeColor=inherit;" parent="V5I9MlUDL_zVhgh1LNIV-52" vertex="1">
          <mxGeometry y="99.14285714285714" width="402" height="8" as="geometry" />
        </mxCell>
        <mxCell id="V5I9MlUDL_zVhgh1LNIV-56" value="+HeaderFooterDecorator(report: Report)" style="text;strokeColor=none;fillColor=none;align=left;verticalAlign=top;spacingLeft=4;spacingRight=4;overflow=hidden;rotatable=0;points=[[0,0.5],[1,0.5]];portConstraint=eastwest;" parent="V5I9MlUDL_zVhgh1LNIV-52" vertex="1">
          <mxGeometry y="107.14285714285714" width="402" height="33" as="geometry" />
        </mxCell>
        <mxCell id="V5I9MlUDL_zVhgh1LNIV-57" value="+setHeader(header: String) : : void" style="text;strokeColor=none;fillColor=none;align=left;verticalAlign=top;spacingLeft=4;spacingRight=4;overflow=hidden;rotatable=0;points=[[0,0.5],[1,0.5]];portConstraint=eastwest;" parent="V5I9MlUDL_zVhgh1LNIV-52" vertex="1">
          <mxGeometry y="140.14285714285714" width="402" height="33" as="geometry" />
        </mxCell>
        <mxCell id="V5I9MlUDL_zVhgh1LNIV-58" value="+setFooter(footer: String) : : void" style="text;strokeColor=none;fillColor=none;align=left;verticalAlign=top;spacingLeft=4;spacingRight=4;overflow=hidden;rotatable=0;points=[[0,0.5],[1,0.5]];portConstraint=eastwest;" parent="V5I9MlUDL_zVhgh1LNIV-52" vertex="1">
          <mxGeometry y="173.14285714285714" width="402" height="33" as="geometry" />
        </mxCell>
        <mxCell id="V5I9MlUDL_zVhgh1LNIV-59" value="+generate() : : void" style="text;strokeColor=none;fillColor=none;align=left;verticalAlign=top;spacingLeft=4;spacingRight=4;overflow=hidden;rotatable=0;points=[[0,0.5],[1,0.5]];portConstraint=eastwest;" parent="V5I9MlUDL_zVhgh1LNIV-52" vertex="1">
          <mxGeometry y="206.14285714285714" width="402" height="33" as="geometry" />
        </mxCell>
        <mxCell id="V5I9MlUDL_zVhgh1LNIV-60" value="WatermarkDecorator" style="swimlane;fontStyle=1;align=center;verticalAlign=top;childLayout=stackLayout;horizontal=1;startSize=36.8;horizontalStack=0;resizeParent=1;resizeParentMax=0;resizeLast=0;collapsible=0;marginBottom=0;" parent="1" vertex="1">
          <mxGeometry x="3038" y="1473" width="379" height="192.8" as="geometry" />
        </mxCell>
        <mxCell id="V5I9MlUDL_zVhgh1LNIV-61" value="-watermarkText: String" style="text;strokeColor=none;fillColor=none;align=left;verticalAlign=top;spacingLeft=4;spacingRight=4;overflow=hidden;rotatable=0;points=[[0,0.5],[1,0.5]];portConstraint=eastwest;" parent="V5I9MlUDL_zVhgh1LNIV-60" vertex="1">
          <mxGeometry y="36.8" width="379" height="37" as="geometry" />
        </mxCell>
        <mxCell id="V5I9MlUDL_zVhgh1LNIV-62" style="line;strokeWidth=1;fillColor=none;align=left;verticalAlign=middle;spacingTop=-1;spacingLeft=3;spacingRight=3;rotatable=0;labelPosition=right;points=[];portConstraint=eastwest;strokeColor=inherit;" parent="V5I9MlUDL_zVhgh1LNIV-60" vertex="1">
          <mxGeometry y="73.8" width="379" height="8" as="geometry" />
        </mxCell>
        <mxCell id="V5I9MlUDL_zVhgh1LNIV-63" value="+WatermarkDecorator(report: Report)" style="text;strokeColor=none;fillColor=none;align=left;verticalAlign=top;spacingLeft=4;spacingRight=4;overflow=hidden;rotatable=0;points=[[0,0.5],[1,0.5]];portConstraint=eastwest;" parent="V5I9MlUDL_zVhgh1LNIV-60" vertex="1">
          <mxGeometry y="81.8" width="379" height="37" as="geometry" />
        </mxCell>
        <mxCell id="V5I9MlUDL_zVhgh1LNIV-64" value="+setWatermarkText(text: String) : : void" style="text;strokeColor=none;fillColor=none;align=left;verticalAlign=top;spacingLeft=4;spacingRight=4;overflow=hidden;rotatable=0;points=[[0,0.5],[1,0.5]];portConstraint=eastwest;" parent="V5I9MlUDL_zVhgh1LNIV-60" vertex="1">
          <mxGeometry y="118.8" width="379" height="37" as="geometry" />
        </mxCell>
        <mxCell id="V5I9MlUDL_zVhgh1LNIV-65" value="+generate() : : void" style="text;strokeColor=none;fillColor=none;align=left;verticalAlign=top;spacingLeft=4;spacingRight=4;overflow=hidden;rotatable=0;points=[[0,0.5],[1,0.5]];portConstraint=eastwest;" parent="V5I9MlUDL_zVhgh1LNIV-60" vertex="1">
          <mxGeometry y="155.8" width="379" height="37" as="geometry" />
        </mxCell>
        <mxCell id="V5I9MlUDL_zVhgh1LNIV-66" value="TextStyle" style="swimlane;fontStyle=1;align=center;verticalAlign=top;childLayout=stackLayout;horizontal=1;startSize=32;horizontalStack=0;resizeParent=1;resizeParentMax=0;resizeLast=0;collapsible=0;marginBottom=0;" parent="1" vertex="1">
          <mxGeometry x="3209" y="1135" width="719" height="264" as="geometry" />
        </mxCell>
        <mxCell id="V5I9MlUDL_zVhgh1LNIV-67" value="-fontName: String" style="text;strokeColor=none;fillColor=none;align=left;verticalAlign=top;spacingLeft=4;spacingRight=4;overflow=hidden;rotatable=0;points=[[0,0.5],[1,0.5]];portConstraint=eastwest;" parent="V5I9MlUDL_zVhgh1LNIV-66" vertex="1">
          <mxGeometry y="32" width="719" height="32" as="geometry" />
        </mxCell>
        <mxCell id="V5I9MlUDL_zVhgh1LNIV-68" value="-fontSize: int" style="text;strokeColor=none;fillColor=none;align=left;verticalAlign=top;spacingLeft=4;spacingRight=4;overflow=hidden;rotatable=0;points=[[0,0.5],[1,0.5]];portConstraint=eastwest;" parent="V5I9MlUDL_zVhgh1LNIV-66" vertex="1">
          <mxGeometry y="64" width="719" height="32" as="geometry" />
        </mxCell>
        <mxCell id="V5I9MlUDL_zVhgh1LNIV-69" value="-fontColor: String" style="text;strokeColor=none;fillColor=none;align=left;verticalAlign=top;spacingLeft=4;spacingRight=4;overflow=hidden;rotatable=0;points=[[0,0.5],[1,0.5]];portConstraint=eastwest;" parent="V5I9MlUDL_zVhgh1LNIV-66" vertex="1">
          <mxGeometry y="96" width="719" height="32" as="geometry" />
        </mxCell>
        <mxCell id="V5I9MlUDL_zVhgh1LNIV-70" value="-isBold: boolean" style="text;strokeColor=none;fillColor=none;align=left;verticalAlign=top;spacingLeft=4;spacingRight=4;overflow=hidden;rotatable=0;points=[[0,0.5],[1,0.5]];portConstraint=eastwest;" parent="V5I9MlUDL_zVhgh1LNIV-66" vertex="1">
          <mxGeometry y="128" width="719" height="32" as="geometry" />
        </mxCell>
        <mxCell id="V5I9MlUDL_zVhgh1LNIV-71" value="-isItalic: boolean" style="text;strokeColor=none;fillColor=none;align=left;verticalAlign=top;spacingLeft=4;spacingRight=4;overflow=hidden;rotatable=0;points=[[0,0.5],[1,0.5]];portConstraint=eastwest;" parent="V5I9MlUDL_zVhgh1LNIV-66" vertex="1">
          <mxGeometry y="160" width="719" height="32" as="geometry" />
        </mxCell>
        <mxCell id="V5I9MlUDL_zVhgh1LNIV-72" style="line;strokeWidth=1;fillColor=none;align=left;verticalAlign=middle;spacingTop=-1;spacingLeft=3;spacingRight=3;rotatable=0;labelPosition=right;points=[];portConstraint=eastwest;strokeColor=inherit;" parent="V5I9MlUDL_zVhgh1LNIV-66" vertex="1">
          <mxGeometry y="192" width="719" height="8" as="geometry" />
        </mxCell>
        <mxCell id="V5I9MlUDL_zVhgh1LNIV-73" value="+TextStyle(fontName: String, fontSize: int, fontColor: String, isBold: boolean, isItalic: boolean)" style="text;strokeColor=none;fillColor=none;align=left;verticalAlign=top;spacingLeft=4;spacingRight=4;overflow=hidden;rotatable=0;points=[[0,0.5],[1,0.5]];portConstraint=eastwest;" parent="V5I9MlUDL_zVhgh1LNIV-66" vertex="1">
          <mxGeometry y="200" width="719" height="32" as="geometry" />
        </mxCell>
        <mxCell id="V5I9MlUDL_zVhgh1LNIV-74" value="+getStyleHash() : : String" style="text;strokeColor=none;fillColor=none;align=left;verticalAlign=top;spacingLeft=4;spacingRight=4;overflow=hidden;rotatable=0;points=[[0,0.5],[1,0.5]];portConstraint=eastwest;" parent="V5I9MlUDL_zVhgh1LNIV-66" vertex="1">
          <mxGeometry y="232" width="719" height="32" as="geometry" />
        </mxCell>
        <mxCell id="V5I9MlUDL_zVhgh1LNIV-75" value="StyleFactory" style="swimlane;fontStyle=1;align=center;verticalAlign=top;childLayout=stackLayout;horizontal=1;startSize=40;horizontalStack=0;resizeParent=1;resizeParentMax=0;resizeLast=0;collapsible=0;marginBottom=0;" parent="1" vertex="1">
          <mxGeometry x="3162" y="822" width="812" height="168" as="geometry" />
        </mxCell>
        <mxCell id="V5I9MlUDL_zVhgh1LNIV-76" value="-styles: Map&lt;String, TextStyle&gt;" style="text;strokeColor=none;fillColor=none;align=left;verticalAlign=top;spacingLeft=4;spacingRight=4;overflow=hidden;rotatable=0;points=[[0,0.5],[1,0.5]];portConstraint=eastwest;" parent="V5I9MlUDL_zVhgh1LNIV-75" vertex="1">
          <mxGeometry y="40" width="812" height="40" as="geometry" />
        </mxCell>
        <mxCell id="V5I9MlUDL_zVhgh1LNIV-77" style="line;strokeWidth=1;fillColor=none;align=left;verticalAlign=middle;spacingTop=-1;spacingLeft=3;spacingRight=3;rotatable=0;labelPosition=right;points=[];portConstraint=eastwest;strokeColor=inherit;" parent="V5I9MlUDL_zVhgh1LNIV-75" vertex="1">
          <mxGeometry y="80" width="812" height="8" as="geometry" />
        </mxCell>
        <mxCell id="V5I9MlUDL_zVhgh1LNIV-78" value="+getInstance() : : StyleFactory" style="text;strokeColor=none;fillColor=none;align=left;verticalAlign=top;spacingLeft=4;spacingRight=4;overflow=hidden;rotatable=0;points=[[0,0.5],[1,0.5]];portConstraint=eastwest;" parent="V5I9MlUDL_zVhgh1LNIV-75" vertex="1">
          <mxGeometry y="88" width="812" height="40" as="geometry" />
        </mxCell>
        <mxCell id="V5I9MlUDL_zVhgh1LNIV-79" value="+getStyle(fontName: String, fontSize: int, fontColor: String, isBold: boolean, isItalic: boolean) : : TextStyle" style="text;strokeColor=none;fillColor=none;align=left;verticalAlign=top;spacingLeft=4;spacingRight=4;overflow=hidden;rotatable=0;points=[[0,0.5],[1,0.5]];portConstraint=eastwest;" parent="V5I9MlUDL_zVhgh1LNIV-75" vertex="1">
          <mxGeometry y="128" width="812" height="40" as="geometry" />
        </mxCell>
        <mxCell id="V5I9MlUDL_zVhgh1LNIV-80" value="ReportDecoratorProxy" style="swimlane;fontStyle=1;align=center;verticalAlign=top;childLayout=stackLayout;horizontal=1;startSize=34.666666666666664;horizontalStack=0;resizeParent=1;resizeParentMax=0;resizeLast=0;collapsible=0;marginBottom=0;" parent="1" vertex="1">
          <mxGeometry x="2546" y="798" width="566" height="217.66666666666666" as="geometry" />
        </mxCell>
        <mxCell id="V5I9MlUDL_zVhgh1LNIV-81" value="-realDecorator: ReportDecorator" style="text;strokeColor=none;fillColor=none;align=left;verticalAlign=top;spacingLeft=4;spacingRight=4;overflow=hidden;rotatable=0;points=[[0,0.5],[1,0.5]];portConstraint=eastwest;" parent="V5I9MlUDL_zVhgh1LNIV-80" vertex="1">
          <mxGeometry y="34.666666666666664" width="566" height="35" as="geometry" />
        </mxCell>
        <mxCell id="V5I9MlUDL_zVhgh1LNIV-82" value="-user: User" style="text;strokeColor=none;fillColor=none;align=left;verticalAlign=top;spacingLeft=4;spacingRight=4;overflow=hidden;rotatable=0;points=[[0,0.5],[1,0.5]];portConstraint=eastwest;" parent="V5I9MlUDL_zVhgh1LNIV-80" vertex="1">
          <mxGeometry y="69.66666666666666" width="566" height="35" as="geometry" />
        </mxCell>
        <mxCell id="V5I9MlUDL_zVhgh1LNIV-83" style="line;strokeWidth=1;fillColor=none;align=left;verticalAlign=middle;spacingTop=-1;spacingLeft=3;spacingRight=3;rotatable=0;labelPosition=right;points=[];portConstraint=eastwest;strokeColor=inherit;" parent="V5I9MlUDL_zVhgh1LNIV-80" vertex="1">
          <mxGeometry y="104.66666666666666" width="566" height="8" as="geometry" />
        </mxCell>
        <mxCell id="V5I9MlUDL_zVhgh1LNIV-84" value="+ReportDecoratorProxy(decorator: ReportDecorator, user: User)" style="text;strokeColor=none;fillColor=none;align=left;verticalAlign=top;spacingLeft=4;spacingRight=4;overflow=hidden;rotatable=0;points=[[0,0.5],[1,0.5]];portConstraint=eastwest;" parent="V5I9MlUDL_zVhgh1LNIV-80" vertex="1">
          <mxGeometry y="112.66666666666666" width="566" height="35" as="geometry" />
        </mxCell>
        <mxCell id="V5I9MlUDL_zVhgh1LNIV-85" value="+generate() : : void" style="text;strokeColor=none;fillColor=none;align=left;verticalAlign=top;spacingLeft=4;spacingRight=4;overflow=hidden;rotatable=0;points=[[0,0.5],[1,0.5]];portConstraint=eastwest;" parent="V5I9MlUDL_zVhgh1LNIV-80" vertex="1">
          <mxGeometry y="147.66666666666666" width="566" height="35" as="geometry" />
        </mxCell>
        <mxCell id="V5I9MlUDL_zVhgh1LNIV-86" value="-checkAccess() : : boolean" style="text;strokeColor=none;fillColor=none;align=left;verticalAlign=top;spacingLeft=4;spacingRight=4;overflow=hidden;rotatable=0;points=[[0,0.5],[1,0.5]];portConstraint=eastwest;" parent="V5I9MlUDL_zVhgh1LNIV-80" vertex="1">
          <mxGeometry y="182.66666666666666" width="566" height="35" as="geometry" />
        </mxCell>
        <mxCell id="V5I9MlUDL_zVhgh1LNIV-87" value="User" style="swimlane;fontStyle=1;align=center;verticalAlign=top;childLayout=stackLayout;horizontal=1;startSize=34.666666666666664;horizontalStack=0;resizeParent=1;resizeParentMax=0;resizeLast=0;collapsible=0;marginBottom=0;" parent="1" vertex="1">
          <mxGeometry x="2708" y="1159" width="304" height="217.66666666666666" as="geometry" />
        </mxCell>
        <mxCell id="V5I9MlUDL_zVhgh1LNIV-88" value="-username: String" style="text;strokeColor=none;fillColor=none;align=left;verticalAlign=top;spacingLeft=4;spacingRight=4;overflow=hidden;rotatable=0;points=[[0,0.5],[1,0.5]];portConstraint=eastwest;" parent="V5I9MlUDL_zVhgh1LNIV-87" vertex="1">
          <mxGeometry y="34.666666666666664" width="304" height="35" as="geometry" />
        </mxCell>
        <mxCell id="V5I9MlUDL_zVhgh1LNIV-89" value="-role: String" style="text;strokeColor=none;fillColor=none;align=left;verticalAlign=top;spacingLeft=4;spacingRight=4;overflow=hidden;rotatable=0;points=[[0,0.5],[1,0.5]];portConstraint=eastwest;" parent="V5I9MlUDL_zVhgh1LNIV-87" vertex="1">
          <mxGeometry y="69.66666666666666" width="304" height="35" as="geometry" />
        </mxCell>
        <mxCell id="V5I9MlUDL_zVhgh1LNIV-90" style="line;strokeWidth=1;fillColor=none;align=left;verticalAlign=middle;spacingTop=-1;spacingLeft=3;spacingRight=3;rotatable=0;labelPosition=right;points=[];portConstraint=eastwest;strokeColor=inherit;" parent="V5I9MlUDL_zVhgh1LNIV-87" vertex="1">
          <mxGeometry y="104.66666666666666" width="304" height="8" as="geometry" />
        </mxCell>
        <mxCell id="V5I9MlUDL_zVhgh1LNIV-91" value="+User(username: String, role: String)" style="text;strokeColor=none;fillColor=none;align=left;verticalAlign=top;spacingLeft=4;spacingRight=4;overflow=hidden;rotatable=0;points=[[0,0.5],[1,0.5]];portConstraint=eastwest;" parent="V5I9MlUDL_zVhgh1LNIV-87" vertex="1">
          <mxGeometry y="112.66666666666666" width="304" height="35" as="geometry" />
        </mxCell>
        <mxCell id="V5I9MlUDL_zVhgh1LNIV-92" value="+getRole() : : String" style="text;strokeColor=none;fillColor=none;align=left;verticalAlign=top;spacingLeft=4;spacingRight=4;overflow=hidden;rotatable=0;points=[[0,0.5],[1,0.5]];portConstraint=eastwest;" parent="V5I9MlUDL_zVhgh1LNIV-87" vertex="1">
          <mxGeometry y="147.66666666666666" width="304" height="35" as="geometry" />
        </mxCell>
        <mxCell id="V5I9MlUDL_zVhgh1LNIV-93" value="+isAdmin() : : boolean" style="text;strokeColor=none;fillColor=none;align=left;verticalAlign=top;spacingLeft=4;spacingRight=4;overflow=hidden;rotatable=0;points=[[0,0.5],[1,0.5]];portConstraint=eastwest;" parent="V5I9MlUDL_zVhgh1LNIV-87" vertex="1">
          <mxGeometry y="182.66666666666666" width="304" height="35" as="geometry" />
        </mxCell>
        <mxCell id="V5I9MlUDL_zVhgh1LNIV-94" value="" style="curved=1;startArrow=block;startSize=16;startFill=0;endArrow=none;exitX=0;exitY=0.62;entryX=0.5;entryY=0;rounded=0;" parent="1" source="V5I9MlUDL_zVhgh1LNIV-1" target="V5I9MlUDL_zVhgh1LNIV-11" edge="1">
          <mxGeometry relative="1" as="geometry">
            <Array as="points">
              <mxPoint x="239" y="1099" />
            </Array>
          </mxGeometry>
        </mxCell>
        <mxCell id="V5I9MlUDL_zVhgh1LNIV-95" value="" style="curved=1;startArrow=block;startSize=16;startFill=0;endArrow=none;exitX=0;exitY=0.77;entryX=0.5;entryY=0;rounded=0;" parent="1" source="V5I9MlUDL_zVhgh1LNIV-1" target="V5I9MlUDL_zVhgh1LNIV-17" edge="1">
          <mxGeometry relative="1" as="geometry">
            <Array as="points">
              <mxPoint x="717" y="1099" />
            </Array>
          </mxGeometry>
        </mxCell>
        <mxCell id="V5I9MlUDL_zVhgh1LNIV-96" value="" style="curved=1;startArrow=diamondThin;startSize=14;startFill=0;endArrow=none;exitX=0.5;exitY=1;entryX=0.5;entryY=0;rounded=0;" parent="1" source="V5I9MlUDL_zVhgh1LNIV-1" target="V5I9MlUDL_zVhgh1LNIV-25" edge="1">
          <mxGeometry relative="1" as="geometry">
            <Array as="points" />
          </mxGeometry>
        </mxCell>
        <mxCell id="V5I9MlUDL_zVhgh1LNIV-97" value="" style="curved=1;dashed=1;startArrow=block;startSize=16;startFill=0;endArrow=none;exitX=0;exitY=0.93;entryX=0.5;entryY=0;rounded=0;" parent="1" source="V5I9MlUDL_zVhgh1LNIV-25" target="V5I9MlUDL_zVhgh1LNIV-28" edge="1">
          <mxGeometry relative="1" as="geometry">
            <Array as="points">
              <mxPoint x="776" y="1424" />
            </Array>
          </mxGeometry>
        </mxCell>
        <mxCell id="V5I9MlUDL_zVhgh1LNIV-98" value="" style="curved=1;dashed=1;startArrow=block;startSize=16;startFill=0;endArrow=none;exitX=0.5;exitY=1;entryX=0.5;entryY=0;rounded=0;" parent="1" source="V5I9MlUDL_zVhgh1LNIV-25" target="V5I9MlUDL_zVhgh1LNIV-31" edge="1">
          <mxGeometry relative="1" as="geometry">
            <Array as="points" />
          </mxGeometry>
        </mxCell>
        <mxCell id="V5I9MlUDL_zVhgh1LNIV-99" value="" style="curved=1;dashed=1;startArrow=block;startSize=16;startFill=0;endArrow=none;exitX=1;exitY=0.91;entryX=0.5;entryY=0;rounded=0;" parent="1" source="V5I9MlUDL_zVhgh1LNIV-25" target="V5I9MlUDL_zVhgh1LNIV-34" edge="1">
          <mxGeometry relative="1" as="geometry">
            <Array as="points">
              <mxPoint x="1469" y="1424" />
            </Array>
          </mxGeometry>
        </mxCell>
        <mxCell id="V5I9MlUDL_zVhgh1LNIV-100" value="" style="curved=1;startArrow=block;startSize=16;startFill=0;endArrow=none;exitX=1;exitY=0.7;entryX=0;entryY=0.33;rounded=0;" parent="1" source="V5I9MlUDL_zVhgh1LNIV-1" target="V5I9MlUDL_zVhgh1LNIV-37" edge="1">
          <mxGeometry relative="1" as="geometry">
            <Array as="points">
              <mxPoint x="1640" y="1099" />
            </Array>
          </mxGeometry>
        </mxCell>
        <mxCell id="V5I9MlUDL_zVhgh1LNIV-101" value="" style="curved=1;startArrow=block;startSize=16;startFill=0;endArrow=none;exitX=0;exitY=0.71;entryX=0.5;entryY=0;rounded=0;" parent="1" source="V5I9MlUDL_zVhgh1LNIV-37" target="V5I9MlUDL_zVhgh1LNIV-42" edge="1">
          <mxGeometry relative="1" as="geometry">
            <Array as="points">
              <mxPoint x="1864" y="1424" />
            </Array>
          </mxGeometry>
        </mxCell>
        <mxCell id="V5I9MlUDL_zVhgh1LNIV-102" value="" style="curved=1;startArrow=block;startSize=16;startFill=0;endArrow=none;exitX=0.17;exitY=1;entryX=0.5;entryY=0;rounded=0;" parent="1" source="V5I9MlUDL_zVhgh1LNIV-37" target="V5I9MlUDL_zVhgh1LNIV-48" edge="1">
          <mxGeometry relative="1" as="geometry">
            <Array as="points">
              <mxPoint x="2320" y="1424" />
            </Array>
          </mxGeometry>
        </mxCell>
        <mxCell id="V5I9MlUDL_zVhgh1LNIV-103" value="" style="curved=1;startArrow=block;startSize=16;startFill=0;endArrow=none;exitX=1;exitY=0.96;entryX=0.5;entryY=0;rounded=0;" parent="1" source="V5I9MlUDL_zVhgh1LNIV-37" target="V5I9MlUDL_zVhgh1LNIV-52" edge="1">
          <mxGeometry relative="1" as="geometry">
            <Array as="points">
              <mxPoint x="2788" y="1424" />
            </Array>
          </mxGeometry>
        </mxCell>
        <mxCell id="V5I9MlUDL_zVhgh1LNIV-104" value="" style="curved=1;startArrow=block;startSize=16;startFill=0;endArrow=none;exitX=1;exitY=0.68;entryX=0.5;entryY=0;rounded=0;" parent="1" source="V5I9MlUDL_zVhgh1LNIV-37" target="V5I9MlUDL_zVhgh1LNIV-60" edge="1">
          <mxGeometry relative="1" as="geometry">
            <Array as="points">
              <mxPoint x="3228" y="1424" />
            </Array>
          </mxGeometry>
        </mxCell>
        <mxCell id="V5I9MlUDL_zVhgh1LNIV-105" value="wraps &gt;" style="curved=1;startArrow=diamondThin;startSize=14;startFill=0;endArrow=none;exitX=0.38;exitY=0;entryX=1;entryY=0.58;rounded=0;" parent="1" source="V5I9MlUDL_zVhgh1LNIV-37" target="V5I9MlUDL_zVhgh1LNIV-1" edge="1">
          <mxGeometry relative="1" as="geometry">
            <Array as="points">
              <mxPoint x="2426" y="1099" />
            </Array>
          </mxGeometry>
        </mxCell>
        <mxCell id="V5I9MlUDL_zVhgh1LNIV-106" value="" style="curved=1;startArrow=diamondThin;startSize=14;startFill=0;endArrow=none;exitX=0.26;exitY=1;entryX=0.66;entryY=0;rounded=0;" parent="1" source="V5I9MlUDL_zVhgh1LNIV-80" target="V5I9MlUDL_zVhgh1LNIV-37" edge="1">
          <mxGeometry relative="1" as="geometry">
            <Array as="points">
              <mxPoint x="2589" y="1099" />
            </Array>
          </mxGeometry>
        </mxCell>
        <mxCell id="V5I9MlUDL_zVhgh1LNIV-107" value="" style="curved=1;startArrow=diamondThin;startSize=14;startFill=0;endArrow=none;exitX=0.53;exitY=1;entryX=0.5;entryY=0;rounded=0;" parent="1" source="V5I9MlUDL_zVhgh1LNIV-80" target="V5I9MlUDL_zVhgh1LNIV-87" edge="1">
          <mxGeometry relative="1" as="geometry">
            <Array as="points">
              <mxPoint x="2860" y="1099" />
            </Array>
          </mxGeometry>
        </mxCell>
        <mxCell id="V5I9MlUDL_zVhgh1LNIV-108" value="creates" style="curved=1;startArrow=none;endArrow=open;endSize=12;exitX=0.5;exitY=1;entryX=0.5;entryY=0;rounded=0;" parent="1" source="V5I9MlUDL_zVhgh1LNIV-75" target="V5I9MlUDL_zVhgh1LNIV-66" edge="1">
          <mxGeometry relative="1" as="geometry">
            <Array as="points" />
          </mxGeometry>
        </mxCell>
      </root>
    </mxGraphModel>
  </diagram>
</mxfile>
